# This file uses centimeters as units for non-parametric coordinates.

mtllib Sala2.mtl
g default
v -5.364100 -0.232197 8.752135
v 5.364100 -0.232197 8.752135
v -5.364100 0.138531 8.752135
v 5.364100 0.138531 8.752135
v -9.898443 0.138531 0.000000
v 9.898443 0.138531 0.000000
v -5.364100 0.138531 -7.706497
v 5.364100 0.138531 -7.706497
v -5.364100 -0.232197 -7.706497
v 5.364100 -0.232197 -7.706497
v -9.898443 -0.232197 0.000000
v 9.898443 -0.232197 0.000000
v -5.817535 0.138531 7.876921
v 5.817535 0.138531 7.876921
v 5.817535 -0.232197 7.876921
v -5.817535 -0.232197 7.876921
v -4.449306 -0.232197 8.752135
v -4.825108 -0.232197 7.876921
v -9.065065 -0.232197 0.000000
v -4.603301 -0.232197 -7.706497
v -4.603301 0.138531 -7.706497
v -4.449306 0.138531 8.752135
v 4.750727 -0.232197 7.876921
v 4.380164 -0.232197 8.752135
v 4.380164 0.138531 8.752135
v 4.534709 0.138531 -7.706497
v 4.534709 -0.232197 -7.706497
v 8.938491 -0.232197 0.000000
v -4.449306 7.536208 8.752135
v 4.380164 7.536208 8.752135
v -9.898443 7.536208 0.000000
v -4.603301 7.536208 -7.706497
v -5.364100 7.536208 -7.706497
v -5.817535 7.536208 7.876921
v -5.364100 7.536208 8.752135
v 5.364100 7.536208 8.752135
v 5.817535 7.536208 7.876921
v 9.898443 7.536208 0.000000
v 4.534709 7.536208 -7.706497
v 5.364100 7.536208 -7.706497
v -4.825112 8.081740 7.876921
v -4.449306 8.081740 8.752135
v 4.380164 8.081740 8.752135
v 4.750724 8.081740 7.876921
v -9.898443 8.081740 0.000000
v -9.065065 8.081740 0.000000
v -4.603301 8.081740 -7.706497
v -5.364100 8.081740 -7.706497
v -5.817535 8.081740 7.876921
v -5.364100 8.081740 8.752135
v 5.364100 8.081740 8.752135
v 5.817535 8.081740 7.876921
v 8.938491 8.081740 0.000000
v 9.898443 8.081740 0.000000
v 4.534709 8.081740 -7.706497
v 5.364100 8.081740 -7.706497
v -5.050558 0.138531 6.956772
v -3.908030 0.138531 7.639309
v -2.598537 0.138531 7.876921
v -5.880448 0.138531 5.916334
v -5.880448 7.536208 5.916334
v -2.598537 7.536208 7.876921
v -3.908030 7.536208 7.639309
v -5.050558 7.536208 6.956772
v 3.830550 0.138531 7.638085
v 4.971797 0.138531 6.952317
v 5.797562 0.138531 5.907887
v 2.520711 0.138531 7.876921
v 5.797562 7.536208 5.907887
v 4.971797 7.536208 6.952317
v 3.830550 7.536208 7.638085
v 2.520711 7.536208 7.876921
v -8.428625 0.138531 -0.652577
v -8.449164 0.138531 0.671995
v -8.027384 0.138531 1.927788
v -7.153597 0.138531 0.000000
v -7.968113 0.138531 -1.894689
v -7.153597 7.536208 0.000000
v -8.027384 7.536208 1.927788
v -8.449164 7.536208 0.671995
v -8.428625 7.536208 -0.652577
v -7.968113 7.536208 -1.894689
v 8.331056 0.138531 0.671162
v 8.310867 0.138531 -0.652321
v 7.855520 0.138531 -1.895170
v 7.027024 0.138531 0.000000
v 7.913830 0.138531 1.927321
v 7.027024 7.536208 0.000000
v 7.855520 7.536208 -1.895170
v 8.310867 7.536208 -0.652321
v 8.331056 7.536208 0.671162
v 7.913830 7.536208 1.927321
v 4.554251 0.138531 5.908786
v -4.640420 0.138531 5.915437
v 3.538719 0.138531 0.000000
v 2.774907 0.138531 5.910073
v -2.851042 0.138531 5.914142
v -3.611885 0.138531 0.000000
v -4.640418 7.536208 5.915438
v 4.554248 7.536208 5.908784
v 2.774905 7.536208 5.910072
v 3.538719 7.536208 0.000000
v -2.851042 7.536208 5.914143
v -3.611885 7.536208 0.000000
vt 0.375000 0.000000
vt 0.625000 0.000000
vt 0.375000 0.250000
vt 0.625000 0.250000
vt 0.375000 0.375000
vt 0.625000 0.375000
vt 0.375000 0.500000
vt 0.625000 0.500000
vt 0.375000 0.750000
vt 0.625000 0.750000
vt 0.375000 0.875000
vt 0.625000 0.875000
vt 0.375000 1.000000
vt 0.625000 1.000000
vt 0.875000 0.000000
vt 0.750000 0.000000
vt 0.875000 0.250000
vt 0.750000 0.250000
vt 0.125000 0.000000
vt 0.250000 0.000000
vt 0.125000 0.250000
vt 0.250000 0.250000
vt 0.362500 0.250000
vt 0.375000 0.262500
vt 0.625000 0.262500
vt 0.637500 0.250000
vt 0.625000 0.987500
vt 0.637500 0.000000
vt 0.362500 0.000000
vt 0.375000 0.987500
vt 0.385524 0.000000
vt 0.385524 1.000000
vt 0.385524 0.987500
vt 0.385524 0.875000
vt 0.385524 0.750000
vt 0.385524 0.250000
vt 0.612878 0.987500
vt 0.612878 0.000000
vt 0.612878 1.000000
vt 0.612878 0.250000
vt 0.612878 0.750000
vt 0.612878 0.875000
vt 0.385524 0.250000
vt 0.612878 0.250000
vt 0.375000 0.500000
vt 0.375000 0.375000
vt 0.375000 0.262500
vt 0.375000 0.250000
vt 0.625000 0.250000
vt 0.625000 0.262500
vt 0.625000 0.375000
vt 0.625000 0.500000
vt 0.385524 0.250000
vt 0.612878 0.250000
vt 0.612878 0.262500
vt 0.385524 0.262500
vt 0.385524 0.375000
vt 0.385524 0.500000
vt 0.375000 0.500000
vt 0.375000 0.375000
vt 0.375000 0.262500
vt 0.375000 0.250000
vt 0.625000 0.250000
vt 0.625000 0.262500
vt 0.612878 0.375000
vt 0.625000 0.375000
vt 0.612878 0.500000
vt 0.625000 0.500000
vt 0.385524 0.500000
vt 0.612878 0.500000
vt 0.385524 0.500000
vt 0.612878 0.500000
vt 0.438390 0.262500
vt 0.385524 0.290502
vt 0.612878 0.290628
vt 0.559932 0.262500
vt 0.385524 0.347478
vt 0.385524 0.405732
vt 0.612878 0.405734
vt 0.612878 0.347474
vt 0.385524 0.290498
vt 0.559933 0.262500
vt 0.438388 0.262500
vt 0.385524 0.347467
vt 0.612878 0.290622
vt 0.385524 0.405731
vt 0.409663 0.375000
vt 0.409663 0.375000
vt 0.612878 0.347470
vt 0.588739 0.375000
vt 0.612878 0.405740
vt 0.588739 0.375000
vt 0.400829 0.281684
vt 0.418414 0.271932
vt 0.419234 0.272336
vt 0.401316 0.281854
vt 0.579118 0.272377
vt 0.597063 0.281939
vt 0.596977 0.282177
vt 0.579043 0.272651
vt 0.385629 0.385887
vt 0.385627 0.367188
vt 0.385627 0.367181
vt 0.385629 0.385884
vt 0.612775 0.367146
vt 0.612774 0.385867
vt 0.612774 0.385872
vt 0.612775 0.367150
vt 0.588672 0.290614
vt 0.409666 0.290512
vt 0.544688 0.375000
vt 0.554031 0.290594
vt 0.444502 0.290532
vt 0.454388 0.375000
vt 0.417074 0.295503
vt 0.581238 0.295823
vt 0.549469 0.295761
vt 0.544688 0.375000
vt 0.449022 0.295565
vt 0.454388 0.375000
vn 0.000000 0.000000 1.000000
vn 0.000000 0.000000 1.000000
vn 0.000000 0.000000 1.000000
vn 0.000000 0.000000 1.000000
vn 0.000000 1.000000 0.000000
vn 0.000000 1.000000 0.000000
vn 0.000000 1.000000 0.000000
vn 0.000000 1.000000 0.000000
vn 0.000000 0.000000 -1.000000
vn 0.000000 0.000000 -1.000000
vn 0.000000 0.000000 -1.000000
vn 0.000000 0.000000 -1.000000
vn 0.000000 -1.000000 0.000000
vn 0.000000 -1.000000 0.000000
vn 0.000000 -1.000000 0.000000
vn 0.000000 -1.000000 0.000000
vn 0.000000 -1.000000 -0.000000
vn 0.000000 -1.000000 -0.000000
vn 0.999577 0.000000 -0.029085
vn 0.861880 0.000000 -0.507112
vn 0.861880 0.000000 -0.507112
vn 0.999577 0.000000 -0.029085
vn 0.887912 0.000000 0.460013
vn 0.887912 0.000000 0.460013
vn -0.861880 0.000000 -0.507112
vn -0.999577 0.000000 -0.029085
vn -0.999577 0.000000 -0.029085
vn -0.861880 0.000000 -0.507112
vn -0.887912 0.000000 0.460013
vn -0.887912 0.000000 0.460013
vn 0.000000 1.000000 -0.000001
vn 0.000000 1.000000 -0.000001
vn 0.000000 1.000000 -0.000001
vn 0.000000 1.000000 -0.000001
vn 0.887912 0.000000 0.460013
vn 0.887912 0.000000 0.460013
vn 0.000000 -1.000000 -0.000000
vn 0.000000 -1.000000 -0.000000
vn -0.887912 0.000000 0.460013
vn -0.887912 0.000000 0.460013
vn 0.000000 -1.000000 -0.000000
vn 0.000000 -1.000000 -0.000000
vn 0.000000 -1.000000 0.000000
vn 0.000000 -1.000000 0.000000
vn 0.000000 0.000000 -1.000000
vn 0.000000 0.000000 -1.000000
vn 0.000000 1.000000 -0.000000
vn 0.000000 1.000000 -0.000000
vn 0.000000 1.000000 0.000000
vn 0.000000 1.000000 0.000000
vn 0.000000 1.000000 -0.000000
vn 0.000000 1.000000 0.000001
vn 0.000000 0.000000 1.000000
vn 0.000000 0.000000 1.000000
vn 0.000000 -1.000000 0.000000
vn 0.000000 -1.000000 -0.000000
vn 0.000000 0.000000 1.000000
vn 0.000000 0.000000 1.000000
vn 0.000000 1.000000 0.000000
vn 0.000000 1.000000 -0.000000
vn 0.000000 1.000000 -0.000000
vn 0.000000 1.000000 -0.000000
vn 0.000000 1.000000 0.000000
vn 0.000000 1.000000 0.000000
vn 0.000000 0.000000 -1.000000
vn 0.000000 0.000000 -1.000000
vn 0.000000 -1.000000 0.000000
vn 0.000000 -1.000000 0.000000
vn 0.000000 0.000000 1.000000
vn 0.000000 0.000000 1.000000
vn 0.000000 0.000000 1.000000
vn 0.000000 0.000000 1.000000
vn -0.037124 0.000000 -0.999311
vn -0.037124 0.000000 -0.999311
vn 0.036936 0.000000 -0.999318
vn 0.036936 0.000000 -0.999318
vn 0.879059 0.000000 0.476712
vn 0.879059 0.000000 0.476712
vn 0.865421 0.000000 0.501045
vn 0.865421 0.000000 0.501045
vn 0.000000 0.000000 -1.000000
vn 0.000000 0.000000 -1.000000
vn 0.000000 0.000000 -1.000000
vn 0.000000 0.000000 -1.000000
vn -0.861880 0.000000 -0.507112
vn -0.861880 0.000000 -0.507112
vn -0.861880 0.000000 -0.507112
vn -0.861880 0.000000 -0.507112
vn 0.860540 0.000000 -0.509383
vn 0.860540 0.000000 -0.509383
vn 0.898059 0.000000 -0.439876
vn 0.898059 0.000000 -0.439876
vn -0.887912 0.000000 0.460013
vn -0.887912 0.000000 0.460013
vn -0.887912 0.000000 0.460013
vn -0.887912 0.000000 0.460013
vn 0.000000 0.000000 1.000000
vn 0.000000 0.000000 1.000000
vn 0.000000 0.000000 1.000000
vn 0.000000 0.000000 1.000000
vn -0.887912 0.000000 0.460013
vn -0.887912 0.000000 0.460013
vn -0.887912 0.000000 0.460013
vn -0.887912 0.000000 0.460013
vn 0.000000 0.000000 1.000000
vn 0.000000 0.000000 1.000000
vn 0.000000 0.000000 1.000000
vn 0.000000 0.000000 1.000000
vn 0.887912 0.000000 0.460013
vn 0.887912 0.000000 0.460013
vn 0.887912 0.000000 0.460013
vn 0.887912 0.000000 0.460013
vn -0.900187 0.000000 -0.435504
vn -0.900187 0.000000 -0.435504
vn -0.862972 0.000000 -0.505252
vn -0.862972 0.000000 -0.505252
vn 0.887912 0.000000 0.460013
vn 0.887912 0.000000 0.460013
vn 0.887912 0.000000 0.460013
vn 0.887912 0.000000 0.460013
vn -0.868240 0.000000 0.496145
vn -0.881629 0.000000 0.471943
vn -0.881629 0.000000 0.471943
vn -0.868240 0.000000 0.496145
vn 0.861880 0.000000 -0.507112
vn 0.861880 0.000000 -0.507112
vn 0.861880 0.000000 -0.507112
vn 0.861880 0.000000 -0.507112
vn 0.000000 0.000000 -1.000000
vn 0.000000 0.000000 -1.000000
vn 0.000000 0.000000 -1.000000
vn 0.000000 0.000000 -1.000000
vn 0.000000 0.000000 1.000000
vn 0.000000 0.000000 1.000000
vn 0.000000 0.000000 1.000000
vn 0.000000 0.000000 1.000000
vn 0.000000 0.000000 -1.000000
vn 0.000000 0.000000 -1.000000
vn 0.000000 0.000000 -1.000000
vn 0.000000 0.000000 -1.000000
vn -0.861880 0.000000 -0.507112
vn -0.861880 0.000000 -0.507112
vn -0.861880 0.000000 -0.507112
vn -0.861880 0.000000 -0.507112
vn -0.887912 0.000000 0.460013
vn -0.887912 0.000000 0.460013
vn -0.887912 0.000000 0.460013
vn -0.887912 0.000000 0.460013
vn 0.000000 0.000000 1.000000
vn 0.000000 0.000000 1.000000
vn 0.000000 0.000000 1.000000
vn 0.000000 0.000000 1.000000
vn -0.887912 0.000000 0.460013
vn -0.887912 0.000000 0.460013
vn -0.887912 0.000000 0.460013
vn -0.887912 0.000000 0.460013
vn 0.000000 0.000000 1.000000
vn 0.000000 0.000000 1.000000
vn 0.000000 0.000000 1.000000
vn 0.000000 0.000000 1.000000
vn 0.887912 0.000000 0.460013
vn 0.887912 0.000000 0.460013
vn 0.887912 0.000000 0.460013
vn 0.887912 0.000000 0.460013
vn 0.887912 0.000000 0.460013
vn 0.887912 0.000000 0.460013
vn 0.887912 0.000000 0.460013
vn 0.887912 0.000000 0.460013
vn 0.861880 0.000000 -0.507112
vn 0.861880 0.000000 -0.507112
vn 0.861880 0.000000 -0.507112
vn 0.861880 0.000000 -0.507112
vn 0.000000 0.000000 -1.000000
vn 0.000000 0.000000 -1.000000
vn 0.000000 0.000000 -1.000000
vn 0.000000 0.000000 -1.000000
vn 0.000000 1.000000 0.000000
vn 0.000000 1.000000 0.000000
vn 0.000000 1.000000 0.000000
vn 0.000000 1.000000 0.000000
vn 0.000000 0.000000 -1.000000
vn 0.000000 0.000000 -1.000000
vn 0.000000 0.000000 -1.000000
vn 0.000000 0.000000 -1.000000
vn 0.000000 1.000000 -0.000000
vn 0.000000 1.000000 -0.000000
vn 0.000000 1.000000 -0.000000
vn 0.000000 1.000000 -0.000000
vn 0.000000 -1.000000 0.000000
vn 0.000000 -1.000000 0.000000
vn 0.000000 -1.000000 0.000000
vn 0.000000 -1.000000 0.000000
vn 0.351338 0.000000 -0.936249
vn 0.351338 0.000000 -0.936249
vn 0.657879 0.000000 -0.753123
vn 0.657879 0.000000 -0.753123
vn -0.660462 0.000000 -0.750860
vn -0.660462 0.000000 -0.750860
vn -0.352945 0.000000 -0.935644
vn -0.352945 0.000000 -0.935644
vn 0.988125 0.000000 -0.153651
vn 0.988125 0.000000 -0.153651
vn 0.982886 0.000000 0.184214
vn 0.982886 0.000000 0.184214
vn -0.983262 0.000000 0.182196
vn -0.983262 0.000000 0.182196
vn -0.988362 0.000000 -0.152120
vn -0.988362 0.000000 -0.152120
vn 0.000000 1.000000 0.000000
vn 0.000000 1.000000 0.000000
vn 0.000000 1.000000 0.000000
vn 0.000000 1.000000 0.000000
vn 0.000000 -1.000000 0.000000
vn 0.000000 -1.000000 0.000000
vn 0.000000 -1.000000 0.000000
vn 0.000000 -1.000000 0.000000
vn 0.000000 1.000000 0.000000
vn 0.000000 1.000000 0.000000
vn 0.000000 1.000000 0.000000
vn 0.000000 1.000000 0.000000
vn 0.000000 1.000000 0.000000
vn 0.000000 -1.000000 -0.000000
vn 0.000000 -1.000000 -0.000000
vn 0.000000 -1.000000 0.000001
vn 0.000000 -1.000000 0.000000
vn 0.000000 -1.000000 0.000000
vn 0.000000 1.000000 0.000000
vn 0.000000 1.000000 0.000000
vn 0.000000 1.000000 0.000000
vn 0.000000 -1.000000 0.000000
vn 0.000000 -1.000000 0.000000
vn 0.000000 -1.000000 -0.000000
vn 0.000000 1.000000 0.000000
vn 0.000000 1.000000 0.000000
vn 0.000000 1.000000 0.000000
vn 0.000000 1.000000 0.000000
vn 0.000000 1.000000 0.000000
vn 0.000000 1.000000 -0.000000
vn 0.000000 1.000000 0.000000
vn 0.000000 1.000000 0.000000
vn 0.000000 1.000000 0.000000
vn 0.000000 1.000000 -0.000000
vn 0.000000 -1.000000 -0.000000
vn 0.000000 -1.000000 0.000001
vn 0.000000 -1.000000 -0.000000
vn 0.000000 -1.000000 -0.000000
vn 0.000000 -1.000000 0.000000
vn 0.000000 -1.000000 0.000000
vn 0.000000 -1.000000 0.000000
vn 0.000000 -1.000000 0.000000
vn 0.000000 -1.000000 0.000000
vn 0.000000 -1.000000 0.000000
s 1
g pCube11
usemtl initialShadingGroup
f 22/36/1 17/31/2 24/38/3 25/40/4
s 2
f 26/72/5 95/111/6 86/90/7 85/79/8
s 3
f 20/35/9 21/71/10 26/72/11 27/41/12
s 4
f 19/34/13 20/35/14 27/41/15 28/42/16
f 18/33/17 19/34/13 28/42/16 23/37/18
s 5
f 12/16/19 10/15/20 8/17/21 6/18/22
f 14/26/23 15/28/24 12/16/19 6/18/22
s 6
f 9/19/25 11/20/26 5/22/27 7/21/28
f 11/20/26 16/29/29 13/23/30 5/22/27
s 7
f 41/56/31 42/53/32 43/54/33 44/55/34
s 5
f 2/2/35 15/28/24 14/26/23 4/4/36
s 4
f 17/32/37 18/33/17 23/37/18 24/39/38
s 6
f 13/23/30 16/29/29 1/1/39 3/3/40
s 4
f 16/30/41 18/33/17 17/32/37 1/13/42
f 11/11/43 19/34/13 18/33/17 16/30/41
f 9/9/44 20/35/14 19/34/13 11/11/43
s 3
f 7/7/45 21/71/10 20/35/9 9/9/46
s 7
f 45/60/47 46/57/48 47/58/49 48/59/50
f 49/61/51 41/56/31 46/57/48 45/60/47
f 50/62/52 42/53/32 41/56/31 49/61/51
s 1
f 1/1/53 17/31/2 22/36/1 3/3/54
s 4
f 24/39/38 23/37/18 15/27/55 2/14/56
s 1
f 25/40/4 24/38/3 2/2/57 4/4/58
s 7
f 44/55/34 43/54/33 51/63/59 52/64/60
f 53/65/61 44/55/34 52/64/60 54/66/62
f 55/67/63 53/65/61 54/66/62 56/68/64
s 3
f 27/41/12 26/72/11 8/8/65 10/10/66
s 4
f 28/42/16 27/41/15 10/10/67 12/12/68
f 23/37/18 28/42/16 12/12/68 15/27/55
s off
f 22/36/69 25/40/70 30/44/71 29/43/72
s 9
f 72/76/73 68/82/74 59/73/75 62/83/76
f 82/78/77 77/86/78 21/71/79 32/69/80
s off
f 21/71/81 7/7/82 33/45/83 32/69/84
f 7/7/85 5/5/86 31/46/87 33/45/88
s 9
f 61/74/89 60/81/90 75/77/91 79/84/92
s off
f 5/5/93 13/24/94 34/47/95 31/46/96
f 3/3/97 22/36/98 29/43/99 35/48/100
f 13/24/101 3/3/102 35/48/103 34/47/104
f 25/40/105 4/4/106 36/49/107 30/44/108
f 4/4/109 14/25/110 37/50/111 36/49/112
s 9
f 92/80/113 87/89/114 67/75/115 69/85/116
s off
f 14/25/117 6/6/118 38/51/119 37/50/120
s 9
f 26/72/121 85/79/122 89/91/123 39/70/124
s off
f 6/6/125 8/8/126 40/52/127 38/51/128
f 8/8/129 26/72/130 39/70/131 40/52/132
f 29/43/133 30/44/134 43/54/135 42/53/136
f 32/69/137 33/45/138 48/59/139 47/58/140
f 33/45/141 31/46/142 45/60/143 48/59/144
f 31/46/145 34/47/146 49/61/147 45/60/148
f 35/48/149 29/43/150 42/53/151 50/62/152
f 34/47/153 35/48/154 50/62/155 49/61/156
f 30/44/157 36/49/158 51/63/159 43/54/160
f 36/49/161 37/50/162 52/64/163 51/63/164
f 37/50/165 38/51/166 54/66/167 52/64/168
f 38/51/169 40/52/170 56/68/171 54/66/172
f 40/52/173 39/70/174 55/67/175 56/68/176
f 47/58/177 46/57/178 53/65/179 55/67/180
f 39/70/181 32/69/182 47/58/183 55/67/184
f 44/55/185 53/65/186 46/57/187 41/56/188
s 14
f 102/118/189 39/70/190 89/91/191 88/92/192
s 9
f 59/73/75 58/94/193 63/95/194 62/83/76
f 58/94/193 57/93/195 64/96/196 63/95/194
f 57/93/195 60/81/90 61/74/89 64/96/196
f 67/75/115 66/98/197 70/99/198 69/85/116
f 66/98/197 65/97/199 71/100/200 70/99/198
f 65/97/199 68/82/74 72/76/73 71/100/200
f 75/77/91 74/102/201 80/103/202 79/84/92
f 74/102/201 73/101/203 81/104/204 80/103/202
f 73/101/203 77/86/78 82/78/77 81/104/204
f 85/79/122 84/106/205 90/107/206 89/91/123
f 84/106/205 83/105/207 91/108/208 90/107/206
f 83/105/207 87/89/114 92/80/113 91/108/208
s 2
f 58/94/209 94/110/210 60/81/211 57/93/212
s 14
f 72/76/213 101/117/214 100/116/215 71/100/216
s 2
f 76/87/217 77/86/218 73/101/219
f 76/87/217 73/101/219 74/102/220
f 76/87/217 74/102/220 75/77/221
s 14
f 78/88/222 79/84/223 80/103/224
f 78/88/222 80/103/224 81/104/225
f 78/88/222 81/104/225 82/78/226
s 2
f 86/90/7 87/89/227 83/105/228
f 86/90/7 83/105/228 84/106/229
f 86/90/7 84/106/229 85/79/8
s 14
f 88/92/192 89/91/191 90/107/230
f 88/92/192 90/107/230 91/108/231
f 88/92/192 91/108/231 92/80/232
s 2
f 60/81/211 94/110/210 76/87/217 75/77/221
f 65/97/233 66/98/234 67/75/235 93/109/236
f 86/90/7 93/109/236 67/75/235 87/89/227
f 65/97/233 93/109/236 96/112/237 68/82/238
f 95/111/6 96/112/237 93/109/236 86/90/7
f 21/71/239 77/86/218 76/87/217 98/114/240
f 76/87/217 94/110/210 97/113/241 98/114/240
f 59/73/242 97/113/241 94/110/210 58/94/209
f 68/82/238 96/112/237 97/113/241 59/73/242
f 98/114/240 97/113/241 96/112/237 95/111/6
f 21/71/239 98/114/240 95/111/6 26/72/5
s 14
f 71/100/216 100/116/215 69/85/243 70/99/244
f 61/74/245 99/115/246 63/95/247 64/96/248
f 78/88/222 99/115/246 61/74/245 79/84/223
f 100/116/215 101/117/214 102/118/189 88/92/192
f 69/85/243 100/116/215 88/92/192 92/80/232
f 62/83/249 103/119/250 101/117/214 72/76/213
f 102/118/189 101/117/214 103/119/250 104/120/251
f 104/120/251 32/69/252 39/70/190 102/118/189
f 62/83/249 63/95/247 99/115/246 103/119/250
f 104/120/251 103/119/250 99/115/246 78/88/222
f 78/88/222 82/78/226 32/69/252 104/120/251
