# This file uses centimeters as units for non-parametric coordinates.

mtllib Porta_do_cano.mtl
g default
v -0.275754 2.138192 0.592510
v -0.281176 2.153369 0.593592
v -0.270159 2.148852 0.580643
v -0.244230 2.225877 0.592523
v -0.234525 2.218826 0.580643
v -0.177552 2.292558 0.592523
v -0.170500 2.282852 0.580643
v -0.093532 2.335368 0.592523
v -0.089825 2.323958 0.580643
v -0.012263 2.336226 0.580643
v -0.012099 2.348267 0.592523
v -0.000396 2.338254 0.592510
v -0.270153 2.148854 1.340057
v -0.281673 2.152392 1.328149
v -0.275750 2.138191 1.328184
v -0.000396 2.338250 1.328184
v -0.013155 2.348100 1.327054
v -0.012267 2.336222 1.340057
v -0.244230 2.225877 1.328149
v -0.234547 2.218842 1.340056
v -0.177552 2.292558 1.328149
v -0.170516 2.282874 1.340056
v -0.093532 2.335368 1.328149
v -0.089833 2.323984 1.340056
v -0.247145 2.141374 0.580580
v -0.235779 2.137541 0.592429
v -0.252459 2.130623 0.592447
v -0.205213 2.197528 0.592429
v -0.214944 2.204598 0.580580
v -0.149204 2.253542 0.592429
v -0.156274 2.263274 0.580580
v -0.078629 2.289499 0.592429
v -0.082346 2.300939 0.580580
v -0.000396 2.313757 0.592447
v -0.011293 2.300164 0.591582
v -0.012263 2.312026 0.580580
v -0.012267 2.312029 1.340228
v -0.012156 2.300028 1.328406
v -0.000396 2.313761 1.328357
v -0.252463 2.130624 1.328357
v -0.236164 2.136786 1.329280
v -0.247147 2.141379 1.340228
v -0.078629 2.289499 1.328406
v -0.082354 2.300965 1.340228
v -0.149204 2.253542 1.328406
v -0.156290 2.263295 1.340228
v -0.205213 2.197528 1.328406
v -0.214966 2.204614 1.340228
v 0.000618 2.362025 1.031947
v 0.015230 2.366772 0.974782
v 0.015982 2.362025 0.974782
v 0.015230 2.357277 0.974782
v 0.013047 2.352993 0.974782
v 0.009649 2.349595 0.974782
v 0.005366 2.347413 0.974782
v 0.000618 2.346661 0.974782
v -0.004130 2.347413 0.974782
v -0.008413 2.349595 0.974782
v -0.011812 2.352993 0.974782
v -0.013994 2.357277 0.974782
v -0.014746 2.362025 0.974782
v -0.013994 2.366772 0.974782
v -0.011812 2.371055 0.974782
v -0.008413 2.374454 0.974782
v -0.004130 2.376636 0.974782
v 0.000618 2.377388 0.974782
v 0.005366 2.376636 0.974782
v 0.009649 2.374454 0.974782
v 0.013047 2.371055 0.974782
v 0.006212 2.363842 1.030792
v 0.010951 2.365382 1.027503
v 0.014118 2.366410 1.022581
v 0.015230 2.366772 1.016775
v 0.005376 2.365482 1.030792
v 0.009408 2.368411 1.027503
v 0.012102 2.370368 1.022581
v 0.013047 2.371055 1.016775
v 0.004075 2.366783 1.030792
v 0.007004 2.370814 1.027503
v 0.008961 2.373508 1.022581
v 0.009649 2.374454 1.016775
v 0.002436 2.367618 1.030792
v 0.003975 2.372357 1.027503
v 0.005004 2.375524 1.022581
v 0.005366 2.376636 1.016775
v 0.000618 2.367906 1.030792
v 0.000618 2.372889 1.027503
v 0.000618 2.376219 1.022581
v 0.000618 2.377388 1.016775
v -0.001200 2.367618 1.030792
v -0.002740 2.372357 1.027503
v -0.003768 2.375524 1.022581
v -0.004130 2.376636 1.016775
v -0.002839 2.366783 1.030792
v -0.005768 2.370814 1.027503
v -0.007725 2.373508 1.022581
v -0.008413 2.374454 1.016775
v -0.004140 2.365482 1.030792
v -0.008172 2.368411 1.027503
v -0.010866 2.370368 1.022581
v -0.011812 2.371055 1.016775
v -0.004976 2.363842 1.030792
v -0.009715 2.365382 1.027503
v -0.012882 2.366410 1.022581
v -0.013994 2.366772 1.016775
v -0.005264 2.362025 1.030792
v -0.010247 2.362025 1.027503
v -0.013577 2.362025 1.022581
v -0.014746 2.362025 1.016775
v -0.004976 2.360207 1.030792
v -0.009715 2.358667 1.027503
v -0.012882 2.357638 1.022581
v -0.013994 2.357277 1.016775
v -0.004140 2.358567 1.030792
v -0.008172 2.355638 1.027503
v -0.010866 2.353681 1.022581
v -0.011812 2.352993 1.016775
v -0.002839 2.357266 1.030792
v -0.005768 2.353234 1.027503
v -0.007725 2.350541 1.022581
v -0.008413 2.349595 1.016775
v -0.001200 2.356431 1.030792
v -0.002740 2.351692 1.027503
v -0.003768 2.348525 1.022581
v -0.004130 2.347413 1.016775
v 0.000618 2.356143 1.030792
v 0.000618 2.351160 1.027503
v 0.000618 2.347830 1.022581
v 0.000618 2.346661 1.016775
v 0.002435 2.356431 1.030792
v 0.003975 2.351691 1.027503
v 0.005004 2.348525 1.022581
v 0.005366 2.347413 1.016775
v 0.004075 2.357266 1.030792
v 0.007004 2.353235 1.027503
v 0.008961 2.350541 1.022581
v 0.009649 2.349595 1.016775
v 0.005376 2.358567 1.030792
v 0.009408 2.355638 1.027503
v 0.012102 2.353681 1.022581
v 0.013047 2.352993 1.016775
v 0.006212 2.360207 1.030792
v 0.010951 2.358667 1.027503
v 0.014118 2.357638 1.022581
v 0.015230 2.357277 1.016775
v 0.006499 2.362025 1.030792
v 0.011483 2.362025 1.027503
v 0.014812 2.362025 1.022581
v 0.015982 2.362025 1.016775
v -0.067387 2.339925 0.974782
v -0.067042 2.343324 0.974782
v -0.067387 2.339925 1.016775
v -0.067042 2.343324 1.016775
v -0.008413 2.349595 0.933135
v -0.011812 2.352993 0.933135
v -0.067387 2.339925 0.933135
v -0.067042 2.343324 0.933135
vt 0.463435 0.546033
vt 0.464572 0.550003
vt 0.390011 0.574050
vt 0.387962 0.570374
vt 0.501712 0.536913
vt 0.463422 0.439653
vt 0.501567 0.471448
vt 0.512500 0.537008
vt 0.477947 0.546832
vt 0.525000 0.537008
vt 0.495935 0.544330
vt 0.537500 0.537008
vt 0.516162 0.542723
vt 0.548429 0.537008
vt 0.530220 0.542513
vt 0.537698 0.541067
vt 0.512302 0.549450
vt 0.505132 0.550794
vt 0.548287 0.471546
vt 0.537693 0.455306
vt 0.466335 0.441752
vt 0.387975 0.374061
vt 0.391798 0.376951
vt 0.478026 0.444142
vt 0.512500 0.471448
vt 0.535947 0.452661
vt 0.510867 0.416964
vt 0.512307 0.419173
vt 0.537500 0.471448
vt 0.516211 0.451713
vt 0.496001 0.448752
vt 0.525000 0.471448
vt 0.354726 0.580260
vt 0.408235 0.564522
vt 0.373591 0.570050
vt 0.354489 0.347495
vt 0.437301 0.556970
vt 0.408159 0.560437
vt 0.473111 0.552122
vt 0.451716 0.554266
vt 0.493275 0.552530
vt 0.492742 0.401046
vt 0.473159 0.413935
vt 0.451716 0.397653
vt 0.373591 0.367884
vt 0.408313 0.391055
vt 0.437366 0.404990
vt 0.408159 0.386013
vt 0.612500 0.504112
vt 0.625000 0.504112
vt 0.625000 0.639520
vt 0.612500 0.639520
vt 0.600000 0.504112
vt 0.600000 0.639520
vt 0.587499 0.504112
vt 0.587500 0.639515
vt 0.575000 0.504112
vt 0.575000 0.639520
vt 0.562500 0.504112
vt 0.562500 0.639520
vt 0.550000 0.504112
vt 0.550000 0.639520
vt 0.537500 0.504112
vt 0.537500 0.639520
vt 0.525000 0.504112
vt 0.525000 0.639521
vt 0.512500 0.504112
vt 0.525000 0.504112
vt 0.525000 0.639521
vt 0.512500 0.639522
vt 0.500000 0.504112
vt 0.512500 0.504112
vt 0.512500 0.639522
vt 0.500000 0.639520
vt 0.487499 0.504112
vt 0.487500 0.639515
vt 0.475000 0.504112
vt 0.475000 0.639520
vt 0.462500 0.504112
vt 0.462500 0.639520
vt 0.450000 0.504112
vt 0.450000 0.639520
vt 0.437500 0.504112
vt 0.437500 0.639520
vt 0.425000 0.504112
vt 0.425000 0.639520
vt 0.412500 0.504112
vt 0.412500 0.639520
vt 0.400000 0.504112
vt 0.400000 0.639521
vt 0.387500 0.504112
vt 0.387500 0.639520
vt 0.375000 0.504112
vt 0.375000 0.639520
vt 0.375000 0.660010
vt 0.387500 0.658502
vt 0.375000 0.688440
vt 0.387500 0.688440
vt 0.500013 0.837524
vt 0.578357 0.867731
vt 0.566653 0.890701
vt 0.648603 0.892034
vt 0.626409 0.935591
vt 0.400000 0.658216
vt 0.400000 0.688440
vt 0.548429 0.908924
vt 0.591841 0.970159
vt 0.412500 0.658162
vt 0.412500 0.688440
vt 0.525462 0.920626
vt 0.548284 0.992353
vt 0.425000 0.658151
vt 0.425000 0.688440
vt 0.500000 0.924657
vt 0.500000 1.000000
vt 0.437500 0.658149
vt 0.437500 0.688440
vt 0.474538 0.920626
vt 0.451716 0.992353
vt 0.450000 0.658149
vt 0.450000 0.688440
vt 0.451571 0.908924
vt 0.408159 0.970159
vt 0.462500 0.658148
vt 0.462500 0.688440
vt 0.499991 0.837516
vt 0.433347 0.890701
vt 0.373591 0.935591
vt 0.475000 0.658148
vt 0.475000 0.688440
vt 0.499996 0.837489
vt 0.421643 0.867731
vt 0.351397 0.892034
vt 0.487500 0.658146
vt 0.487500 0.688440
vt 0.417611 0.842273
vt 0.343750 0.843750
vt 0.500000 0.658148
vt 0.500000 0.688440
vt 0.421644 0.816810
vt 0.351397 0.795466
vt 0.512500 0.658149
vt 0.512500 0.688440
vt 0.433347 0.793840
vt 0.373591 0.751909
vt 0.525000 0.658148
vt 0.525000 0.688440
vt 0.451571 0.775617
vt 0.408159 0.717341
vt 0.537500 0.658149
vt 0.537500 0.688440
vt 0.474538 0.763915
vt 0.451716 0.695147
vt 0.550000 0.658149
vt 0.550000 0.688440
vt 0.500000 0.759882
vt 0.500000 0.687500
vt 0.562500 0.658149
vt 0.562500 0.688440
vt 0.525460 0.763915
vt 0.548284 0.695147
vt 0.575000 0.658151
vt 0.575000 0.688440
vt 0.548429 0.775617
vt 0.591842 0.717341
vt 0.587500 0.658159
vt 0.587500 0.688440
vt 0.566654 0.793842
vt 0.626409 0.751908
vt 0.600000 0.658215
vt 0.600000 0.688440
vt 0.578356 0.816810
vt 0.648603 0.795466
vt 0.612500 0.658502
vt 0.612500 0.688440
vt 0.582389 0.842273
vt 0.656250 0.843750
vt 0.625000 0.660010
vt 0.625000 0.688440
vt 0.512500 0.504112
vt 0.525000 0.504112
vt 0.525000 0.504112
vt 0.512500 0.504112
vn -0.220203 -0.671790 -0.707254
vn -0.220203 -0.671790 -0.707254
vn -0.220203 -0.671790 -0.707254
vn -0.220203 -0.671790 -0.707254
vn -0.932875 -0.360200 -0.000553
vn -0.932875 -0.360200 -0.000553
vn -0.932875 -0.360200 -0.000553
vn -0.932875 -0.360200 -0.000553
vn -0.646520 0.324150 -0.690607
vn -0.646520 0.324150 -0.690607
vn -0.573158 0.420258 -0.703472
vn -0.572927 0.420535 -0.703495
vn -0.413599 0.569259 -0.710550
vn -0.413599 0.569259 -0.710549
vn -0.224679 0.666701 -0.710654
vn -0.224674 0.666702 -0.710654
vn -0.110658 0.699065 -0.706444
vn -0.110658 0.699065 -0.706444
vn 0.706966 0.001831 -0.707245
vn 0.706966 0.001831 -0.707245
vn 0.710504 -0.072350 -0.699964
vn 0.710766 -0.090189 -0.697623
vn 0.630344 0.776316 0.000543
vn 0.630344 0.776316 0.000543
vn 0.630344 0.776316 0.000543
vn 0.630344 0.776316 0.000543
vn -0.223146 -0.670577 0.707484
vn -0.223146 -0.670577 0.707484
vn -0.153960 -0.696952 0.700396
vn -0.136539 -0.702940 0.698020
vn -0.631736 0.321653 0.705301
vn -0.631736 0.321652 0.705301
vn -0.565808 0.420457 0.709279
vn -0.565800 0.420469 0.709279
vn 0.706715 0.005003 0.707481
vn 0.706715 0.005003 0.707481
vn 0.706715 0.005003 0.707481
vn 0.706715 0.005003 0.707481
vn -0.108500 0.716512 0.689085
vn -0.108500 0.716512 0.689085
vn -0.222896 0.676476 0.701924
vn -0.223232 0.676342 0.701946
vn -0.414539 0.570555 0.708960
vn -0.414539 0.570555 0.708960
vn 0.629414 -0.320638 -0.707834
vn 0.629414 -0.320638 -0.707834
vn 0.562626 -0.419658 -0.712277
vn 0.562630 -0.419653 -0.712277
vn 0.368685 -0.929554 -0.000378
vn 0.368685 -0.929554 -0.000378
vn 0.368685 -0.929554 -0.000378
vn 0.368685 -0.929554 -0.000378
vn 0.412497 -0.567740 -0.712403
vn 0.412498 -0.567739 -0.712403
vn 0.222972 -0.659126 -0.718218
vn 0.223250 -0.659051 -0.718200
vn 0.104083 -0.685624 -0.720477
vn 0.104083 -0.685624 -0.720477
vn 0.769799 -0.638286 0.000394
vn 0.769799 -0.638286 0.000394
vn 0.769799 -0.638286 0.000394
vn 0.769799 -0.638286 0.000394
vn 0.110123 -0.696462 0.709094
vn 0.110123 -0.696462 0.709094
vn 0.224755 -0.663398 0.713714
vn 0.224743 -0.663402 0.713715
vn 0.618458 -0.309841 0.722155
vn 0.618458 -0.309841 0.722155
vn 0.556481 -0.414950 0.719823
vn 0.556637 -0.414710 0.719841
vn 0.411552 -0.566438 0.713984
vn 0.411551 -0.566439 0.713984
vn 0.156435 -0.987688 0.000000
vn 0.320689 -0.947184 0.000000
vn 0.320102 -0.947383 0.000000
vn 0.156435 -0.987688 0.000000
vn 0.802116 -0.597168 -0.000000
vn 0.891000 -0.454004 -0.000000
vn 0.891000 -0.454004 -0.000000
vn 0.801734 -0.597681 -0.000000
vn 0.587795 -0.809010 0.000000
vn 0.587795 -0.809010 0.000000
vn -0.891003 0.453996 0.000000
vn -0.802400 0.596786 0.000000
vn -0.802005 0.597317 0.000000
vn -0.891004 0.453996 0.000000
vn -0.587793 0.809012 0.000000
vn -0.587793 0.809012 0.000000
vn -0.320290 0.947320 -0.000000
vn -0.319647 0.947537 -0.000000
vn -0.156456 0.987685 -0.000000
vn -0.156456 0.987685 -0.000000
vn -0.005676 0.004229 0.999975
vn -0.006382 0.003251 0.999974
vn -0.006382 0.003251 0.999974
vn -0.005677 0.004228 0.999975
vn -0.004163 0.005730 0.999975
vn -0.004163 0.005730 0.999975
vn -0.002267 0.006706 0.999975
vn -0.002267 0.006706 0.999975
vn -0.001118 0.007074 0.999974
vn -0.001118 0.007074 0.999974
vn -0.000831 0.002459 -0.999997
vn -0.000411 0.002594 -0.999997
vn -0.000411 0.002594 -0.999997
vn -0.000831 0.002459 -0.999997
vn -0.001526 0.002101 -0.999997
vn -0.001526 0.002101 -0.999997
vn -0.002082 0.001551 -0.999997
vn -0.002082 0.001551 -0.999997
vn -0.002340 0.001193 -0.999997
vn -0.002340 0.001193 -0.999997
vn -0.309014 -0.951058 0.000000
vn -0.309014 -0.951058 0.000000
vn -0.309014 -0.951058 0.000000
vn -0.309014 -0.951058 0.000000
vn 1.000000 0.000000 -0.000000
vn 1.000000 0.000000 -0.000000
vn 1.000000 0.000000 -0.000000
vn 1.000000 0.000000 -0.000000
vn -0.779195 -0.236980 -0.580255
vn -0.779195 -0.236979 -0.580255
vn -0.779195 -0.236980 -0.580255
vn 0.512361 0.599612 -0.614778
vn 0.512361 0.599612 -0.614778
vn 0.512361 0.599612 -0.614777
vn -0.728392 -0.302271 0.614879
vn -0.728392 -0.302271 0.614879
vn -0.728392 -0.302271 0.614879
vn 0.465229 0.669142 0.579493
vn 0.465229 0.669142 0.579493
vn 0.465229 0.669142 0.579493
vn 0.318400 -0.769071 -0.554213
vn 0.318400 -0.769071 -0.554213
vn 0.318400 -0.769071 -0.554213
vn 0.652401 -0.486011 -0.581521
vn 0.633119 -0.540231 0.554356
vn 0.633119 -0.540231 0.554356
vn 0.633119 -0.540231 0.554356
vn 0.258360 -0.770660 0.582523
vn 1.000000 -0.000001 0.000000
vn 0.951055 0.309023 0.000000
vn 0.950798 0.308940 0.023224
vn 0.999730 -0.000001 0.023222
vn 0.951064 -0.308995 0.000000
vn 0.950807 -0.308912 0.023223
vn 0.809016 -0.587786 0.000000
vn 0.808798 -0.587628 0.023224
vn 0.587764 -0.809032 0.000000
vn 0.587606 -0.808814 0.023226
vn 0.309017 -0.951057 0.000000
vn 0.308936 -0.950799 0.023223
vn 0.000000 -1.000000 0.000000
vn -0.000000 -0.999730 0.023220
vn -0.308972 -0.951071 0.000000
vn -0.308891 -0.950814 0.023220
vn -0.453949 -0.891028 0.000000
vn -0.481912 -0.875246 0.041294
vn -0.994881 0.101050 0.000000
vn -0.994881 0.101050 0.000000
vn -0.994881 0.101051 0.000000
vn -0.994881 0.101051 0.000000
vn -0.951064 -0.308995 0.000000
vn -0.891029 -0.453947 0.000000
vn -0.875248 -0.481909 0.041295
vn -0.950807 -0.308912 0.023222
vn -1.000000 0.000000 0.000000
vn -0.999730 -0.000000 0.023222
vn -0.951054 0.309024 0.000000
vn -0.950798 0.308941 0.023223
vn -0.809025 0.587774 0.000000
vn -0.808808 0.587615 0.023223
vn -0.587781 0.809020 0.000000
vn -0.587621 0.808803 0.023223
vn -0.308972 0.951071 0.000000
vn -0.308890 0.950814 0.023226
vn 0.000000 1.000000 0.000000
vn 0.000000 0.999730 0.023226
vn 0.308972 0.951071 0.000000
vn 0.308891 0.950814 0.023224
vn 0.587781 0.809020 0.000000
vn 0.587621 0.808803 0.023222
vn 0.809025 0.587774 0.000000
vn 0.808807 0.587615 0.023223
vn 0.885682 0.287777 0.364352
vn 0.753416 0.547372 0.364348
vn 0.703124 0.228474 0.673361
vn 0.598123 0.434545 0.673364
vn -0.000001 0.000007 1.000000
vn 0.452563 0.147058 0.879523
vn 0.384996 0.279714 0.879510
vn 0.547367 0.753419 0.364347
vn 0.434538 0.598133 0.673360
vn 0.279694 0.384996 0.879516
vn 0.287749 0.885690 0.364354
vn 0.228432 0.703129 0.673371
vn 0.147022 0.452584 0.879518
vn 0.000001 0.931253 0.364374
vn 0.000000 0.739299 0.673378
vn 0.000000 0.475851 0.879526
vn -0.287750 0.885685 0.364366
vn -0.228434 0.703127 0.673372
vn -0.147022 0.452585 0.879518
vn -0.547365 0.753416 0.364356
vn -0.434536 0.598129 0.673364
vn -0.279692 0.384993 0.879519
vn -0.753413 0.547372 0.364353
vn -0.598117 0.434545 0.673370
vn -0.384982 0.279706 0.879519
vn -0.885682 0.287778 0.364351
vn -0.703122 0.228471 0.673365
vn -0.452567 0.147053 0.879522
vn -0.931263 -0.000001 0.364347
vn -0.739306 -0.000000 0.673370
vn -0.475867 0.000003 0.879517
vn -0.885690 -0.287758 0.364347
vn -0.703122 -0.228448 0.673373
vn -0.452550 -0.147031 0.879534
vn -0.753423 -0.547359 0.364351
vn -0.598124 -0.434536 0.673369
vn -0.384975 -0.279684 0.879529
vn -0.547363 -0.753423 0.364346
vn -0.434537 -0.598130 0.673363
vn -0.279690 -0.384987 0.879522
vn -0.287755 -0.885693 0.364343
vn -0.228437 -0.703113 0.673386
vn -0.147023 -0.452554 0.879533
vn -0.000015 -0.931269 0.364331
vn -0.000027 -0.739298 0.673378
vn -0.000012 -0.475835 0.879535
vn 0.287802 -0.885680 0.364337
vn 0.228474 -0.703123 0.673363
vn 0.147032 -0.452545 0.879536
vn 0.547371 -0.753413 0.364354
vn 0.434543 -0.598122 0.673366
vn 0.279674 -0.384982 0.879529
vn 0.753408 -0.547381 0.364349
vn 0.598104 -0.434556 0.673374
vn 0.384942 -0.279683 0.879544
vn 0.885690 -0.287757 0.364347
vn 0.703115 -0.228442 0.673382
vn 0.452547 -0.147026 0.879536
vn 0.931261 -0.000000 0.364353
vn 0.739300 -0.000001 0.673376
vn 0.475849 -0.000002 0.879527
vn 0.000000 0.000000 -1.000000
vn 0.000000 0.000000 -1.000000
vn 0.000000 0.000000 -1.000000
vn 0.000000 0.000000 -1.000000
vn 0.000000 0.000000 1.000000
vn 0.000000 0.000000 1.000000
vn 0.000000 0.000000 1.000000
vn 0.000000 0.000000 1.000000
vn -0.172458 0.985017 0.000000
vn -0.172458 0.985017 0.000000
vn -0.172458 0.985017 0.000000
vn -0.172458 0.985017 0.000000
vn -0.994881 0.101050 0.000000
vn -0.994881 0.101050 0.000000
vn -0.172458 0.985017 0.000000
vn -0.172458 0.985017 0.000000
s off
g polySurface5
usemtl initialShadingGroup
f 1/1/1 3/2/2 25/3/3 27/4/4
f 2/5/5 1/1/6 15/6/7 14/7/8
s 1
f 3/2/9 2/5/10 4/8/11 5/9/12
f 5/9/12 4/8/11 6/10/13 7/11/14
f 7/11/14 6/10/13 8/12/15 9/13/16
f 9/13/16 8/12/15 11/14/17 10/15/18
s 2
f 10/15/19 12/16/20 34/17/21 36/18/22
s off
f 12/16/23 11/14/24 17/19/25 16/20/26
s 3
f 13/21/27 15/6/28 40/22/29 42/23/30
s 4
f 14/7/31 13/21/32 20/24/33 19/25/34
s off
f 16/20/35 18/26/36 37/27/37 39/28/38
s 4
f 18/26/39 17/19/40 23/29/41 24/30/42
f 19/25/34 20/24/33 22/31/43 21/32/44
f 21/32/44 22/31/43 24/30/42 23/29/41
s 6
f 26/33/45 25/3/46 29/34/47 28/35/48
s off
f 27/4/49 26/33/50 41/36/51 40/22/52
s 6
f 28/35/48 29/34/47 31/37/53 30/38/54
f 30/38/54 31/37/53 33/39/55 32/40/56
f 32/40/56 33/39/55 36/18/57 35/41/58
s off
f 35/41/59 34/17/60 39/28/61 38/42/62
s 7
f 38/42/63 37/27/64 44/43/65 43/44/66
f 42/23/67 41/36/68 47/45/69 48/46/70
f 43/44/66 44/43/65 46/47/71 45/48/72
f 45/48/72 46/47/71 48/46/70 47/45/69
s 9
f 38/42/73 43/44/74 32/40/75 35/41/76
f 47/45/77 41/36/78 26/33/79 28/35/80
f 45/48/81 47/45/77 28/35/80 30/38/82
f 43/44/74 45/48/81 30/38/82 32/40/75
s 11
f 14/7/83 19/25/84 4/8/85 2/5/86
f 19/25/84 21/32/87 6/10/88 4/8/85
f 21/32/87 23/29/89 8/12/90 6/10/88
f 23/29/89 17/19/91 11/14/92 8/12/90
s 12
f 20/24/93 13/21/94 42/23/95 48/46/96
f 22/31/97 20/24/93 48/46/96 46/47/98
f 24/30/99 22/31/97 46/47/98 44/43/100
f 18/26/101 24/30/99 44/43/100 37/27/102
s 13
f 9/13/103 10/15/104 36/18/105 33/39/106
f 7/11/107 9/13/103 33/39/106 31/37/108
f 5/9/109 7/11/107 31/37/108 29/34/110
f 3/2/111 5/9/109 29/34/110 25/3/112
s off
f 15/6/113 1/1/114 27/4/115 40/22/116
f 12/16/117 16/20/118 39/28/119 34/17/120
f 1/1/121 2/5/122 3/2/123
f 10/15/124 11/14/125 12/16/126
f 13/21/127 14/7/128 15/6/129
f 16/20/130 17/19/131 18/26/132
f 25/3/133 26/33/134 27/4/135
s 2
f 34/17/21 35/41/136 36/18/22
s off
f 37/27/137 38/42/138 39/28/139
s 3
f 40/22/29 41/36/140 42/23/30
s 14
f 51/49/141 50/50/142 73/51/143 149/52/144
f 52/53/145 51/49/141 149/52/144 145/54/146
f 53/55/147 52/53/145 145/54/146 141/56/148
f 54/57/149 53/55/147 141/56/148 137/58/150
f 55/59/151 54/57/149 137/58/150 133/60/152
f 56/61/153 55/59/151 133/60/152 129/62/154
f 57/63/155 56/61/153 129/62/154 125/64/156
f 58/65/157 57/63/155 125/64/156 121/66/158
s 15
f 151/67/159 150/68/160 152/69/161 153/70/162
s 14
f 60/71/163 59/72/164 117/73/165 113/74/166
f 61/75/167 60/71/163 113/74/166 109/76/168
f 62/77/169 61/75/167 109/76/168 105/78/170
f 63/79/171 62/77/169 105/78/170 101/80/172
f 64/81/173 63/79/171 101/80/172 97/82/174
f 65/83/175 64/81/173 97/82/174 93/84/176
f 66/85/177 65/83/175 93/84/176 89/86/178
f 67/87/179 66/85/177 89/86/178 85/88/180
f 68/89/181 67/87/179 85/88/180 81/90/182
f 69/91/183 68/89/181 81/90/182 77/92/184
f 50/93/142 69/91/183 77/92/184 73/94/143
f 72/95/185 73/94/143 77/92/184 76/96/186
f 71/97/187 72/95/185 76/96/186 75/98/188
f 49/99/189 70/100/190 74/101/191
f 70/100/190 71/102/187 75/103/188 74/101/191
f 76/96/186 77/92/184 81/90/182 80/104/192
f 75/98/188 76/96/186 80/104/192 79/105/193
f 49/99/189 74/101/191 78/106/194
f 74/101/191 75/103/188 79/107/193 78/106/194
f 80/104/192 81/90/182 85/88/180 84/108/195
f 79/105/193 80/104/192 84/108/195 83/109/196
f 49/99/189 78/106/194 82/110/197
f 78/106/194 79/107/193 83/111/196 82/110/197
f 84/108/195 85/88/180 89/86/178 88/112/198
f 83/109/196 84/108/195 88/112/198 87/113/199
f 49/99/189 82/110/197 86/114/200
f 82/110/197 83/111/196 87/115/199 86/114/200
f 88/112/198 89/86/178 93/84/176 92/116/201
f 87/113/199 88/112/198 92/116/201 91/117/202
f 49/99/189 86/114/200 90/118/203
f 86/114/200 87/115/199 91/119/202 90/118/203
f 92/116/201 93/84/176 97/82/174 96/120/204
f 91/117/202 92/116/201 96/120/204 95/121/205
f 49/99/189 90/118/203 94/122/206
f 90/118/203 91/119/202 95/123/205 94/122/206
f 96/120/204 97/82/174 101/80/172 100/124/207
f 95/121/205 96/120/204 100/124/207 99/125/208
f 49/126/189 94/122/206 98/127/209
f 94/122/206 95/123/205 99/128/208 98/127/209
f 100/124/207 101/80/172 105/78/170 104/129/210
f 99/125/208 100/124/207 104/129/210 103/130/211
f 49/131/189 98/127/209 102/132/212
f 98/127/209 99/128/208 103/133/211 102/132/212
f 104/129/210 105/78/170 109/76/168 108/134/213
f 103/130/211 104/129/210 108/134/213 107/135/214
f 49/131/189 102/132/212 106/136/215
f 102/132/212 103/133/211 107/137/214 106/136/215
f 108/134/213 109/76/168 113/74/166 112/138/216
f 107/135/214 108/134/213 112/138/216 111/139/217
f 49/131/189 106/136/215 110/140/218
f 106/136/215 107/137/214 111/141/217 110/140/218
f 112/138/216 113/74/166 117/73/165 116/142/219
f 111/139/217 112/138/216 116/142/219 115/143/220
f 49/131/189 110/140/218 114/144/221
f 110/140/218 111/141/217 115/145/220 114/144/221
f 116/142/219 117/73/165 121/66/158 120/146/222
f 115/143/220 116/142/219 120/146/222 119/147/223
f 49/131/189 114/144/221 118/148/224
f 114/144/221 115/145/220 119/149/223 118/148/224
f 120/146/222 121/66/158 125/64/156 124/150/225
f 119/147/223 120/146/222 124/150/225 123/151/226
f 49/131/189 118/148/224 122/152/227
f 118/148/224 119/149/223 123/153/226 122/152/227
f 124/150/225 125/64/156 129/62/154 128/154/228
f 123/151/226 124/150/225 128/154/228 127/155/229
f 49/131/189 122/152/227 126/156/230
f 122/152/227 123/153/226 127/157/229 126/156/230
f 128/154/228 129/62/154 133/60/152 132/158/231
f 127/155/229 128/154/228 132/158/231 131/159/232
f 49/131/189 126/156/230 130/160/233
f 126/156/230 127/157/229 131/161/232 130/160/233
f 132/158/231 133/60/152 137/58/150 136/162/234
f 131/159/232 132/158/231 136/162/234 135/163/235
f 49/131/189 130/160/233 134/164/236
f 130/160/233 131/161/232 135/165/235 134/164/236
f 136/162/234 137/58/150 141/56/148 140/166/237
f 135/163/235 136/162/234 140/166/237 139/167/238
f 49/131/189 134/164/236 138/168/239
f 134/164/236 135/165/235 139/169/238 138/168/239
f 140/166/237 141/56/148 145/54/146 144/170/240
f 139/167/238 140/166/237 144/170/240 143/171/241
f 49/131/189 138/168/239 142/172/242
f 138/168/239 139/169/238 143/173/241 142/172/242
f 144/170/240 145/54/146 149/52/144 148/174/243
f 143/171/241 144/170/240 148/174/243 147/175/244
f 49/131/189 142/172/242 146/176/245
f 142/172/242 143/173/241 147/177/244 146/176/245
f 73/51/143 72/178/185 148/174/243 149/52/144
f 72/178/185 71/179/187 147/175/244 148/174/243
f 71/102/187 70/100/190 146/176/245 147/177/244
f 70/100/190 49/99/189 146/176/245
s off
f 155/180/246 154/181/247 156/182/248 157/183/249
f 121/66/250 117/73/251 153/70/252 152/69/253
s 18
f 117/73/254 59/72/255 151/67/256 153/70/257
s 15
f 150/68/160 151/67/159 157/183/258 156/182/259
s 18
f 151/67/256 59/72/255 155/180/260 157/183/261
