# This file uses centimeters as units for non-parametric coordinates.

mtllib Corredor_L_1.mtl
g default
v -12.957235 7.851182 -3.863744
v -12.957235 7.165156 -4.510425
v -4.703108 7.165156 -4.510425
v -4.703108 7.851182 -3.863744
v -12.957235 7.165156 4.936906
v -12.957235 7.851182 4.290225
v -4.703108 7.851182 4.290225
v -4.703108 7.165156 4.936906
v -12.957235 0.676260 -4.510425
v -12.957235 -0.009766 -3.863744
v -4.703108 -0.009766 -3.863744
v -4.703108 0.676260 -4.510425
v -12.957235 -0.009766 4.290225
v -12.957235 0.676260 4.936906
v -4.703108 0.676260 4.936906
v -4.703108 -0.009766 4.290225
v -12.957235 1.176260 -4.039102
v -12.957235 0.490234 -3.392421
v -12.957235 0.490234 3.818902
v -12.957235 1.176260 4.465583
v -12.957235 6.665156 4.465583
v -12.957235 7.351182 3.818902
v -12.957235 7.351182 -3.392421
v -12.957235 6.665156 -4.039102
v -4.703108 6.665156 -4.039102
v -4.703108 7.351182 -3.392421
v -4.703108 7.351182 3.818902
v -4.703108 6.665156 4.465583
v -4.703108 1.176260 4.465583
v -4.703108 0.490234 3.818902
v -4.703108 0.490234 -3.392421
v -4.703108 1.176260 -4.039102
v -3.877226 7.851182 13.777000
v -4.523906 7.165156 13.777000
v -4.523906 7.165156 5.214092
v -3.877226 7.851182 5.214092
v 4.923424 7.165156 13.777000
v 4.276743 7.851182 13.777000
v 4.276743 7.851182 5.214092
v 4.923424 7.165156 5.214092
v -4.523906 0.676260 13.777000
v -3.877226 -0.009766 13.777000
v -3.877226 -0.009766 5.214092
v -4.523906 0.676260 5.214092
v 4.276743 -0.009766 13.777000
v 4.923424 0.676260 13.777000
v 4.923424 0.676260 5.214092
v 4.276743 -0.009766 5.214092
v -4.052583 1.176260 13.777000
v -3.405903 0.490234 13.777000
v 3.805420 0.490234 13.777000
v 4.452101 1.176260 13.777000
v 4.452101 6.665156 13.777000
v 3.805420 7.351182 13.777000
v -3.405903 7.351182 13.777000
v -4.052583 6.665156 13.777000
v -4.052583 6.665156 5.214092
v -3.405903 7.351182 5.214092
v 3.805420 7.351182 5.214092
v 4.452101 6.665156 5.214092
v 4.452101 1.176260 5.214092
v 3.805420 0.490234 5.214092
v -3.405903 0.490234 5.214092
v -4.052583 1.176260 5.214092
v -3.877226 7.851182 -4.800089
v -4.523906 7.165156 -4.800089
v 4.923424 7.165156 -4.800089
v 4.276743 7.851182 -4.800089
v -4.523906 0.676260 -4.800089
v -3.877226 -0.009766 -4.800089
v 4.276743 -0.009766 -4.800089
v 4.923424 0.676260 -4.800089
v -4.052583 1.176260 -4.800089
v -3.405903 0.490234 -4.800089
v 3.805420 0.490234 -4.800089
v 4.452101 1.176260 -4.800089
v 4.452101 6.665156 -4.800089
v 3.805420 7.351182 -4.800089
v -3.405903 7.351182 -4.800089
v -4.052583 6.665156 -4.800089
v -3.723182 7.494277 -7.511549
v -3.877226 7.851182 -7.154644
v -4.523906 7.165156 -7.154644
v -4.167002 7.023455 -7.511549
v 4.923424 7.165156 -7.154644
v 4.566519 7.023455 -7.511549
v 4.276743 7.851182 -7.154644
v 4.122700 7.494277 -7.511549
v -4.523906 0.676260 -7.154644
v -4.167002 0.817961 -7.511549
v -3.877226 -0.009766 -7.154644
v -3.723182 0.347139 -7.511549
v 4.122700 0.347139 -7.511549
v 4.276743 -0.009766 -7.154644
v 4.923424 0.676260 -7.154644
v 4.566519 0.817961 -7.511549
v -4.052583 6.665156 -6.754245
v -3.877266 6.595550 -6.929562
v -3.405903 7.351182 -6.754245
v -3.330234 7.175864 -6.929562
v 3.729752 7.175864 -6.929562
v 3.805420 7.351182 -6.754245
v 4.452101 6.665156 -6.754245
v 4.276783 6.595550 -6.929562
v -3.330234 0.665552 -6.929562
v -3.405903 0.490234 -6.754245
v -4.052583 1.176260 -6.754245
v -3.877266 1.245866 -6.929562
v 4.452101 1.176260 -6.754245
v 4.276783 1.245866 -6.929562
v 3.805420 0.490234 -6.754245
v 3.729752 0.665552 -6.929562
vt 0.375000 0.250000
vt 0.250000 0.364091
vt 0.625000 0.250000
vt 0.625000 0.250000
vt 0.750000 0.364091
vt 0.392113 1.000000
vt 0.375000 1.000000
vt 0.250000 0.385910
vt 0.607887 0.000000
vt 0.625000 0.000000
vt 0.625000 1.000000
vt 0.750000 0.385909
vt 0.392113 0.250000
vt 0.607887 0.500000
vt 0.392113 0.750000
vt 0.607887 1.000000
vt 0.625000 0.228182
vt 0.375000 0.021818
vt 0.392113 0.000000
vt 0.605990 0.000000
vt 0.625000 0.021820
vt 0.625000 0.225002
vt 0.607887 0.250000
vt 0.394010 0.250000
vt 0.375000 0.228182
vt 0.375000 0.024998
vt 0.392113 0.500000
vt 0.605990 0.500000
vt 0.625000 0.725002
vt 0.607887 0.750000
vt 0.394010 0.750000
vt 0.375000 0.524998
vt 0.625000 0.025001
vt 0.625000 0.525001
vt 0.605990 0.250000
vt 0.394010 0.500000
vt 0.375000 0.224999
vt 0.375000 0.724999
vt 0.394010 0.000000
vt 0.605990 0.750000
vt 0.392113 0.250000
vt 0.375000 0.250000
vt 0.375000 0.224999
vt 0.394010 0.250000
vt 0.392113 0.500000
vt 0.250000 0.364091
vt 0.625000 0.228182
vt 0.625000 0.250000
vt 0.605990 0.250000
vt 0.625000 0.225002
vt 0.607887 0.250000
vt 0.625000 0.250000
vt 0.750000 0.364091
vt 0.607887 0.500000
vt 0.375000 0.021818
vt 0.392113 0.000000
vt 0.394010 0.000000
vt 0.375000 0.024998
vt 0.392113 1.000000
vt 0.375000 1.000000
vt 0.250000 0.385910
vt 0.392113 0.750000
vt 0.607887 0.000000
vt 0.625000 0.000000
vt 0.625000 0.025001
vt 0.605990 0.000000
vt 0.625000 1.000000
vt 0.607887 1.000000
vt 0.607887 0.750000
vt 0.750000 0.385909
vt 0.394010 0.750000
vt 0.375000 0.724999
vt 0.625000 0.725002
vt 0.605990 0.750000
vt 0.605990 0.500000
vt 0.625000 0.525001
vt 0.375000 0.524998
vt 0.394010 0.500000
vt 0.625000 0.021820
vt 0.375000 0.228182
vt 0.375000 0.239091
vt 0.392113 0.250000
vt 0.607887 0.250000
vt 0.625000 0.239091
vt 0.392113 1.000000
vt 0.375000 0.510909
vt 0.625000 0.510910
vt 0.607887 1.000000
vt 0.375000 0.024998
vt 0.394010 0.000000
vt 0.605990 0.000000
vt 0.625000 0.025001
vt 0.625000 0.225002
vt 0.605990 0.250000
vt 0.394010 0.250000
vt 0.375000 0.224999
vt 0.749975 0.500049
vt 0.749975 0.500049
vt 0.500000 1.000000
vt 0.749975 0.500049
vt 0.749975 0.500049
vt 0.749975 0.500049
vt 0.749975 0.500049
vt 0.749975 0.500049
vt 0.500000 1.000000
vt 0.749975 0.500049
vt 0.500000 1.000000
vt 0.000000 0.000000
vt 1.000000 0.000000
vt 0.250025 0.500049
vt 0.000000 0.000000
vt 1.000000 0.000000
vt 0.250025 0.500049
vt 0.000000 0.000000
vt 1.000000 0.000000
vt 0.250025 0.500049
vt 0.000000 0.000000
vt 1.000000 0.000000
vt 0.250025 0.500049
vt 0.000000 0.000000
vt 1.000000 0.000000
vt 0.250025 0.500049
vt 0.000000 0.000000
vt 1.000000 0.000000
vt 0.250025 0.500049
vt 0.000000 0.000000
vt 1.000000 0.000000
vt 0.250025 0.500049
vt 0.000000 0.000000
vt 1.000000 0.000000
vt 0.250025 0.500049
vt 0.500000 1.000000
vt 0.500000 1.000000
vt 0.500000 1.000000
vt 0.500000 1.000000
vt 0.500000 1.000000
vt 0.749975 0.500050
vt 0.749975 0.500050
vt 0.749975 0.500050
vt 0.500000 1.000000
vt 0.749975 0.500050
vt 0.500000 1.000000
vt 0.749975 0.500050
vt 0.749975 0.500050
vt 0.749975 0.500050
vt 0.500000 1.000000
vt 0.749975 0.500050
vt 0.000000 0.000000
vt 1.000000 0.000000
vt 0.250025 0.500050
vt 0.000000 0.000000
vt 1.000000 0.000000
vt 0.250025 0.500050
vt 0.000000 0.000000
vt 1.000000 0.000000
vt 0.250025 0.500050
vt 0.000000 0.000000
vt 1.000000 0.000000
vt 0.250025 0.500050
vt 0.000000 0.000000
vt 1.000000 0.000000
vt 0.250025 0.500050
vt 0.000000 0.000000
vt 1.000000 0.000000
vt 0.250025 0.500050
vt 0.000000 0.000000
vt 1.000000 0.000000
vt 0.250025 0.500050
vt 0.000000 0.000000
vt 1.000000 0.000000
vt 0.250025 0.500050
vt 0.500000 1.000000
vt 0.500000 1.000000
vt 0.500000 1.000000
vt 0.500000 1.000000
vt 0.500000 1.000000
vn -1.000000 0.000003 0.000000
vn -1.000000 0.000000 0.000000
vn -1.000000 0.000000 0.000000
vn -1.000000 0.000004 0.000000
vn 0.000000 0.685932 -0.727665
vn 0.000000 0.685932 -0.727665
vn 0.000000 0.685932 -0.727665
vn 0.000000 0.685932 -0.727665
vn -1.000000 -0.000001 0.000000
vn -1.000000 0.000002 0.000000
vn -1.000000 0.000003 0.000000
vn -1.000000 -0.000000 0.000000
vn 0.000000 0.685932 0.727666
vn 0.000000 0.685932 0.727666
vn 0.000000 0.685932 0.727666
vn 0.000000 0.685932 0.727666
vn -1.000000 0.000000 0.000000
vn -1.000000 -0.000002 0.000000
vn -1.000000 -0.000002 0.000000
vn -1.000000 0.000000 0.000000
vn 0.000000 -0.685932 -0.727666
vn 0.000000 -0.685932 -0.727666
vn 0.000000 -0.685932 -0.727666
vn 0.000000 -0.685932 -0.727666
vn -1.000000 -0.000001 0.000000
vn -1.000000 0.000001 0.000000
vn -1.000000 0.000000 0.000000
vn -1.000000 -0.000002 0.000000
vn 0.000000 -0.685932 0.727666
vn 0.000000 -0.685932 0.727666
vn 0.000000 -0.685932 0.727666
vn 0.000000 -0.685932 0.727666
vn 0.000000 0.685932 0.727665
vn 0.000000 0.685932 0.727665
vn 0.000000 0.685932 0.727665
vn 0.000000 0.685932 0.727665
vn 0.000000 0.685932 -0.727666
vn 0.000000 0.685932 -0.727666
vn 0.000000 0.685932 -0.727666
vn 0.000000 0.685932 -0.727666
vn 0.000000 -0.685932 -0.727666
vn 0.000000 -0.685932 -0.727666
vn 0.000000 -0.685932 -0.727666
vn 0.000000 -0.685932 -0.727666
vn 0.000000 -0.685932 0.727666
vn 0.000000 -0.685932 0.727666
vn 0.000000 -0.685932 0.727666
vn 0.000000 -0.685932 0.727666
vn 0.000000 1.000000 0.000000
vn 0.000000 1.000000 0.000000
vn 0.000000 1.000000 0.000000
vn 0.000000 1.000000 0.000000
vn 0.000000 -1.000000 0.000000
vn 0.000000 -1.000000 0.000000
vn 0.000000 -1.000000 0.000000
vn 0.000000 -1.000000 0.000000
vn 0.000000 0.000000 1.000000
vn 0.000000 0.000000 1.000000
vn 0.000000 0.000000 1.000000
vn 0.000000 0.000000 1.000000
vn 0.000000 0.000000 -1.000000
vn 0.000000 0.000000 -1.000000
vn 0.000000 0.000000 -1.000000
vn 0.000000 0.000000 -1.000000
vn 0.000000 0.000000 -1.000000
vn 0.000000 0.000000 -1.000000
vn 0.000000 0.000000 -1.000000
vn 0.000000 0.000000 -1.000000
vn 0.000000 -1.000000 0.000000
vn 0.000000 -1.000000 0.000000
vn 0.000000 -1.000000 0.000000
vn 0.000000 -1.000000 0.000000
vn 0.000000 0.000000 1.000000
vn 0.000000 0.000000 1.000000
vn 0.000000 0.000000 1.000000
vn 0.000000 0.000000 1.000000
vn 0.000000 1.000000 0.000000
vn 0.000000 1.000000 0.000000
vn 0.000000 1.000000 0.000000
vn 0.000000 1.000000 0.000000
vn -0.000000 0.000000 1.000000
vn -0.000001 0.000000 1.000000
vn -0.000001 0.000000 1.000000
vn -0.000000 0.000000 1.000000
vn -0.727665 0.685933 0.000000
vn -0.727665 0.685933 0.000000
vn -0.727665 0.685933 0.000000
vn -0.727665 0.685933 0.000000
vn 0.000001 0.000000 1.000000
vn 0.000000 0.000000 1.000000
vn 0.000000 0.000000 1.000000
vn 0.000001 0.000000 1.000000
vn 0.727666 0.685932 0.000000
vn 0.727666 0.685932 0.000000
vn 0.727666 0.685932 0.000000
vn 0.727666 0.685932 0.000000
vn -0.000001 0.000000 1.000000
vn -0.000000 0.000000 1.000000
vn -0.000000 0.000000 1.000000
vn -0.000001 0.000000 1.000000
vn -0.727665 -0.685933 0.000000
vn -0.727665 -0.685933 0.000000
vn -0.727665 -0.685933 0.000000
vn -0.727665 -0.685933 0.000000
vn 0.000000 0.000000 1.000000
vn 0.000000 0.000000 1.000000
vn 0.000000 0.000000 1.000000
vn 0.000000 0.000000 1.000000
vn 0.727666 -0.685932 0.000000
vn 0.727666 -0.685932 0.000000
vn 0.727666 -0.685932 0.000000
vn 0.727666 -0.685932 0.000000
vn 0.727666 0.685932 0.000000
vn 0.727666 0.685932 0.000000
vn 0.727666 0.685932 0.000000
vn 0.727666 0.685932 0.000000
vn -0.727665 0.685933 0.000000
vn -0.727665 0.685933 0.000000
vn -0.727665 0.685933 0.000000
vn -0.727665 0.685933 0.000000
vn -0.727665 -0.685933 0.000000
vn -0.727665 -0.685933 0.000000
vn -0.727665 -0.685933 0.000000
vn -0.727665 -0.685933 0.000000
vn 0.727666 -0.685932 0.000000
vn 0.727666 -0.685932 0.000000
vn 0.727666 -0.685932 0.000000
vn 0.727666 -0.685932 0.000000
vn 0.000000 1.000000 0.000000
vn 0.000000 1.000000 0.000000
vn 0.000000 1.000000 0.000000
vn 0.000000 1.000000 0.000000
vn 0.000000 -1.000000 0.000000
vn 0.000000 -1.000000 0.000000
vn 0.000000 -1.000000 0.000000
vn 0.000000 -1.000000 0.000000
vn 1.000000 0.000000 0.000000
vn 1.000000 0.000000 0.000000
vn 1.000000 0.000000 0.000000
vn 1.000000 0.000000 0.000000
vn -1.000000 0.000000 0.000000
vn -1.000000 0.000000 0.000000
vn -1.000000 0.000000 0.000000
vn -1.000000 0.000000 0.000000
vn -1.000000 0.000000 0.000000
vn -1.000000 0.000000 0.000000
vn -1.000000 0.000000 0.000000
vn -1.000000 0.000000 0.000000
vn 0.000000 -1.000000 0.000000
vn 0.000000 -1.000000 0.000000
vn 0.000000 -1.000000 0.000000
vn 0.000000 -1.000000 0.000000
vn 1.000000 0.000000 0.000000
vn 1.000000 0.000000 0.000000
vn 1.000000 0.000000 0.000000
vn 1.000000 0.000000 0.000000
vn 0.000000 1.000000 0.000000
vn 0.000000 1.000000 0.000000
vn 0.000000 1.000000 0.000000
vn 0.000000 1.000000 0.000000
vn -0.839784 0.000000 0.542921
vn -0.839784 0.000000 0.542921
vn -0.839784 0.000000 0.542921
vn -0.839784 0.000000 0.542921
vn -0.850416 0.000000 -0.526111
vn -0.850416 0.000000 -0.526111
vn -0.850416 0.000000 -0.526111
vn -0.850416 0.000000 -0.526111
vn -0.644458 0.552762 -0.528326
vn -0.644458 0.552762 -0.528326
vn -0.644458 0.552762 -0.528326
vn -0.644458 0.552762 -0.528326
vn -0.638902 0.553126 0.534655
vn -0.638902 0.553126 0.534655
vn -0.638902 0.553126 0.534655
vn -0.638902 0.553126 0.534655
vn 0.000000 1.000000 0.000000
vn 0.000000 1.000000 0.000000
vn 0.000000 1.000000 0.000000
vn 0.000000 1.000000 0.000000
vn 0.616073 -0.554194 -0.559753
vn 0.616073 -0.554194 -0.559753
vn 0.616073 -0.554194 -0.559753
vn 0.616073 -0.554194 -0.559753
vn 0.754782 0.000000 -0.655976
vn 0.754782 0.000000 -0.655976
vn 0.754782 0.000000 -0.655976
vn 0.754782 0.000000 -0.655976
vn 0.616073 0.554194 -0.559753
vn 0.616073 0.554194 -0.559753
vn 0.616073 0.554194 -0.559753
vn 0.616073 0.554194 -0.559753
vn 0.619341 0.554081 0.556247
vn 0.619341 0.554081 0.556247
vn 0.619341 0.554081 0.556247
vn 0.619341 0.554081 0.556247
vn 0.619340 -0.554082 0.556247
vn 0.619340 -0.554082 0.556247
vn 0.619340 -0.554082 0.556247
vn 0.619340 -0.554082 0.556247
vn 0.760120 0.000000 0.649783
vn 0.760120 0.000000 0.649783
vn 0.760120 0.000000 0.649783
vn 0.760120 0.000000 0.649783
vn 0.000000 -1.000000 0.000000
vn 0.000000 -1.000000 0.000000
vn 0.000000 -1.000000 0.000000
vn 0.000000 -1.000000 0.000000
vn -0.638902 -0.553126 0.534655
vn -0.638902 -0.553126 0.534655
vn -0.638902 -0.553126 0.534655
vn -0.638902 -0.553126 0.534655
vn -0.644458 -0.552760 -0.528327
vn -0.644458 -0.552760 -0.528327
vn -0.644458 -0.552760 -0.528327
vn -0.644458 -0.552760 -0.528327
vn 0.000000 1.000000 0.000000
vn 0.000000 1.000000 0.000000
vn 0.000000 1.000000 0.000000
vn 0.000000 1.000000 0.000000
vn 0.000000 -1.000000 0.000000
vn 0.000000 -1.000000 0.000000
vn 0.000000 -1.000000 0.000000
vn 0.000000 -1.000000 0.000000
vn 0.000000 -1.000000 0.000000
vn 0.000000 -1.000000 0.000000
vn 0.000000 -1.000000 0.000000
vn 0.000000 -1.000000 0.000000
vn 0.000000 1.000000 0.000000
vn 0.000000 1.000000 0.000000
vn 0.000000 1.000000 0.000000
vn 0.000000 1.000000 0.000000
vn 0.000000 -1.000000 0.000000
vn 0.000000 -1.000000 0.000000
vn 0.000000 -1.000000 0.000000
vn 0.000000 -1.000000 0.000000
vn 0.000000 1.000000 0.000000
vn 0.000000 1.000000 0.000000
vn 0.000000 1.000000 0.000000
vn 0.000000 1.000000 0.000000
vn 0.727665 0.685933 0.000000
vn 0.727665 0.685933 0.000000
vn 0.727665 0.685933 0.000000
vn 0.727665 0.685933 0.000000
vn -0.727665 -0.685932 0.000000
vn -0.727665 -0.685932 0.000000
vn -0.727665 -0.685932 0.000000
vn -0.727665 -0.685932 0.000000
vn 0.727665 -0.685932 0.000000
vn 0.727665 -0.685932 0.000000
vn 0.727666 -0.685932 0.000000
vn 0.727666 -0.685932 0.000000
vn -0.727665 0.685932 0.000000
vn -0.727665 0.685932 0.000000
vn -0.727665 0.685932 0.000000
vn -0.727665 0.685932 0.000000
vn -1.000000 0.000000 0.000000
vn -1.000000 0.000000 0.000000
vn -1.000000 0.000000 0.000000
vn -1.000000 0.000000 0.000000
vn 1.000000 0.000000 0.000000
vn 1.000000 0.000000 0.000000
vn 1.000000 0.000000 0.000000
vn 1.000000 0.000000 0.000000
vn 0.000000 0.707107 -0.707106
vn 0.000000 0.707107 -0.707106
vn 0.000000 0.707107 -0.707106
vn 0.000000 0.707107 -0.707106
vn -0.514539 0.485027 -0.707106
vn -0.514539 0.485027 -0.707106
vn -0.514539 0.485027 -0.707106
vn -0.514539 0.485027 -0.707106
vn -0.707108 0.000000 -0.707105
vn -0.707108 0.000000 -0.707105
vn -0.707108 0.000000 -0.707105
vn -0.707108 0.000000 -0.707105
vn 0.514539 0.485028 -0.707105
vn 0.514539 0.485028 -0.707105
vn 0.514539 0.485028 -0.707105
vn 0.514539 0.485028 -0.707105
vn 0.707108 0.000000 -0.707105
vn 0.707108 0.000000 -0.707105
vn 0.707108 0.000000 -0.707105
vn 0.707108 0.000000 -0.707105
vn -0.514539 -0.485026 -0.707106
vn -0.514538 -0.485026 -0.707107
vn -0.514538 -0.485026 -0.707107
vn -0.514538 -0.485026 -0.707107
vn 0.000000 -0.707108 -0.707106
vn 0.000000 -0.707108 -0.707106
vn 0.000000 -0.707108 -0.707106
vn 0.000000 -0.707108 -0.707106
vn 0.514537 -0.485028 -0.707106
vn 0.514537 -0.485028 -0.707107
vn 0.514537 -0.485028 -0.707106
vn 0.514537 -0.485028 -0.707106
vn -0.727666 0.685932 0.000000
vn -0.727666 0.685932 0.000000
vn -0.727666 0.685932 0.000000
vn -0.727666 0.685932 0.000000
vn 0.727666 0.685932 0.000000
vn 0.727666 0.685932 0.000000
vn -0.727666 -0.685932 0.000000
vn -0.727666 -0.685932 0.000000
vn -0.727666 -0.685932 0.000000
vn -0.727666 -0.685932 0.000000
vn 0.727666 -0.685932 0.000000
vn 0.727666 -0.685932 0.000000
vn 0.000000 1.000000 0.000000
vn 0.000000 1.000000 0.000000
vn 0.000000 -1.000000 0.000000
vn 0.000000 -1.000000 0.000000
vn 1.000000 0.000000 0.000000
vn 1.000000 0.000000 0.000000
vn -1.000000 0.000000 0.000000
vn -1.000000 0.000000 0.000000
vn -1.000000 0.000000 0.000000
vn -1.000000 0.000000 0.000000
vn 0.000000 0.000000 -1.000000
vn 0.000000 0.000000 -1.000000
vn 0.000000 0.000000 -1.000000
vn 0.000000 0.000000 -1.000000
vn 0.000000 0.000000 -1.000000
vn 0.000000 0.000000 -1.000000
vn 0.000000 0.000000 -1.000000
vn 0.000000 0.000000 -1.000000
vn 0.514536 -0.485027 0.707108
vn 0.514536 -0.485027 0.707108
vn 0.514536 -0.485027 0.707108
vn 0.514536 -0.485027 0.707108
vn 0.707106 0.000000 0.707107
vn 0.707106 0.000000 0.707107
vn 0.707106 0.000000 0.707107
vn 0.707106 0.000000 0.707107
vn 0.000000 -0.707107 0.707107
vn 0.000000 -0.707107 0.707107
vn 0.000000 -0.707107 0.707107
vn 0.000000 -0.707107 0.707107
vn -0.514536 -0.485028 0.707108
vn -0.514536 -0.485028 0.707108
vn -0.514536 -0.485028 0.707108
vn -0.514536 -0.485028 0.707108
vn -0.707106 0.000000 0.707107
vn -0.707106 0.000000 0.707107
vn -0.707106 0.000000 0.707107
vn -0.707106 0.000000 0.707107
vn 0.000000 0.707107 0.707107
vn 0.000000 0.707107 0.707107
vn 0.000000 0.707107 0.707107
vn 0.000000 0.707107 0.707107
vn 0.514535 0.485028 0.707108
vn 0.514535 0.485028 0.707108
vn 0.514535 0.485028 0.707108
vn 0.514535 0.485028 0.707108
vn -0.514537 0.485029 0.707106
vn -0.514536 0.485029 0.707106
vn -0.514536 0.485029 0.707106
vn -0.514536 0.485029 0.707106
vn 0.727666 -0.685932 0.000000
vn 0.727666 -0.685932 0.000000
vn 0.727666 -0.685932 0.000000
vn 0.727666 -0.685932 0.000000
vn -0.727665 -0.685933 0.000000
vn -0.727665 -0.685933 0.000000
vn 0.727666 0.685932 0.000000
vn 0.727666 0.685932 0.000000
vn 0.727666 0.685932 0.000000
vn 0.727666 0.685932 0.000000
vn -0.727665 0.685933 0.000000
vn -0.727665 0.685933 0.000000
vn 0.000000 1.000000 0.000000
vn 0.000000 1.000000 0.000000
vn -1.000000 0.000000 0.000000
vn -1.000000 0.000000 0.000000
vn 0.000000 -1.000000 0.000000
vn 0.000000 -1.000000 0.000000
vn 1.000000 0.000000 0.000000
vn 1.000000 0.000000 0.000000
vn 1.000000 0.000000 0.000000
vn 1.000000 0.000000 0.000000
vn 0.000000 0.000000 1.000000
vn 0.000000 0.000000 1.000000
vn 0.000000 0.000000 1.000000
vn 0.000000 0.000000 1.000000
vn 0.000000 0.000000 1.000000
vn 0.000000 0.000000 1.000000
vn 0.000000 0.000000 1.000000
vn 0.000000 0.000000 1.000000
s 1
g pCube7
usemtl initialShadingGroup
f 1/13/1 2/1/2 24/37/3 23/24/4
s off
f 2/1/5 1/13/6 4/27/7 3/2/8
s 1
f 5/17/9 6/3/10 22/35/11 21/22/12
s off
f 6/23/13 5/4/14 8/5/15 7/14/16
s 1
f 9/18/17 10/19/18 18/39/19 17/26/20
s off
f 10/6/21 9/7/22 12/8/23 11/15/24
s 1
f 13/9/25 14/10/26 20/33/27 19/20/28
s off
f 14/11/29 13/16/30 16/30/31 15/12/32
f 17/26/33 18/39/34 31/31/35 32/38/36
f 19/20/37 20/33/38 29/29/39 30/40/40
f 21/22/41 22/35/42 27/28/43 28/34/44
f 23/24/45 24/37/46 25/32/47 26/36/48
f 1/13/49 6/23/50 7/14/51 4/27/52
f 11/15/53 16/30/54 13/16/55 10/6/56
f 14/21/57 15/12/58 8/5/59 5/17/60
f 12/8/61 9/18/62 2/25/63 3/2/64
s 1
f 10/19/18 13/9/25 19/20/28 18/39/19
f 14/21/26 5/17/9 21/22/12 20/33/27
f 6/23/10 1/13/1 23/24/4 22/35/11
f 2/25/2 9/18/17 17/26/20 24/37/3
s off
f 20/33/65 21/22/66 28/34/67 29/29/68
f 22/35/69 23/24/70 26/36/71 27/28/72
f 24/37/73 17/26/74 32/38/75 25/32/76
f 18/39/77 19/20/78 30/40/79 31/31/80
s 3
f 33/41/81 34/42/82 56/43/83 55/44/84
s off
f 34/42/85 33/41/86 36/45/87 35/46/88
s 3
f 37/47/89 38/48/90 54/49/91 53/50/92
s off
f 38/51/93 37/52/94 40/53/95 39/54/96
s 3
f 41/55/97 42/56/98 50/57/99 49/58/100
s off
f 42/59/101 41/60/102 44/61/103 43/62/104
s 3
f 45/63/105 46/64/106 52/65/107 51/66/108
s off
f 46/67/109 45/68/110 48/69/111 47/70/112
f 49/58/113 50/57/114 63/71/115 64/72/116
f 51/66/117 52/65/118 61/73/119 62/74/120
f 53/50/121 54/49/122 59/75/123 60/76/124
f 55/44/125 56/43/126 57/77/127 58/78/128
f 33/41/129 38/51/130 39/54/131 36/45/132
f 43/62/133 48/69/134 45/68/135 42/59/136
f 46/79/137 47/70/138 40/53/139 37/47/140
f 44/61/141 41/55/142 34/80/143 35/46/144
s 3
f 42/56/98 45/63/105 51/66/108 50/57/99
f 46/79/106 37/47/89 53/50/92 52/65/107
f 38/51/90 33/41/81 55/44/84 54/49/91
f 34/80/82 41/55/97 49/58/100 56/43/83
s off
f 52/65/145 53/50/146 60/76/147 61/73/148
f 54/49/149 55/44/150 58/78/151 59/75/152
f 56/43/153 49/58/154 64/72/155 57/77/156
f 50/57/157 51/66/158 62/74/159 63/71/160
f 8/5/161 15/12/162 44/61/163 35/46/164
f 12/8/165 3/2/166 66/81/167 69/86/168
f 3/2/169 4/27/170 65/82/171 66/81/172
f 7/14/173 8/5/174 35/46/175 36/45/176
f 65/82/177 4/27/178 7/14/179 36/45/180
f 28/34/181 27/28/182 58/78/183 57/77/184
f 29/29/185 28/34/186 57/77/187 64/72/188
f 30/40/189 29/29/190 64/72/191 63/71/192
f 32/38/193 31/31/194 74/90/195 73/89/196
f 26/36/197 25/32/198 80/96/199 79/95/200
f 25/32/201 32/38/202 73/89/203 80/96/204
f 58/78/205 27/28/206 26/36/207 79/95/208
f 15/12/209 16/30/210 43/62/211 44/61/212
f 11/15/213 12/8/214 69/86/215 70/85/216
f 30/40/217 63/71/218 74/90/219 31/31/220
f 43/62/221 16/30/222 11/15/223 70/85/224
s 5
f 48/69/225 43/62/226 70/85/227 71/88/228
s 6
f 63/71/229 62/74/230 75/91/231 74/90/232
s 7
f 59/75/233 58/78/234 79/95/235 78/94/236
s 8
f 36/45/237 39/54/238 68/83/239 65/82/240
s 9
f 39/54/241 40/53/242 67/84/243 68/83/244
s 10
f 60/76/245 59/75/246 78/94/247 77/93/248
s 11
f 47/70/249 48/69/250 71/88/251 72/87/252
s 12
f 62/74/253 61/73/254 76/92/255 75/91/256
s 13
f 60/76/257 77/93/258 76/92/259 61/73/260
s 14
f 67/84/261 40/53/262 47/70/263 72/87/264
s off
f 81/99/265 82/122/266 87/97/267 88/133/268
f 82/98/269 81/99/270 84/136/271 83/110/272
f 83/100/273 84/136/274 90/132/275 89/131/276
f 85/101/277 86/134/278 88/133/279 87/113/280
f 86/134/281 85/128/282 95/102/283 96/135/284
f 89/103/285 90/132/286 92/105/287 91/116/288
f 91/104/289 92/105/290 93/107/291 94/125/292
f 94/106/293 93/107/294 96/135/295 95/119/296
f 66/108/297 65/109/298 82/98/299 83/110/300
s 9
f 68/111/244 67/112/243 85/101/301 87/113/302
s off
f 70/114/303 69/115/304 89/103/305 91/116/306
s 11
f 72/117/252 71/118/251 94/106/307 95/119/308
s 8
f 65/120/240 68/121/239 87/97/309 82/122/310
s 5
f 71/123/228 70/124/227 91/104/311 94/125/312
s 14
f 67/126/261 72/127/264 95/102/313 85/128/314
s off
f 69/129/315 66/130/316 83/100/317 89/131/318
s 15
f 92/105/319 90/132/320 96/135/321 93/107/322
f 84/136/323 81/99/324 88/133/325 86/134/326
f 86/134/326 96/135/321 90/132/320 84/136/323
s off
f 97/137/327 98/172/328 100/140/329 99/150/330
f 98/172/331 97/171/332 107/138/333 108/174/334
f 99/139/335 100/140/336 101/142/337 102/168/338
f 102/141/339 101/142/340 104/173/341 103/153/342
f 103/143/343 104/173/344 110/176/345 109/165/346
f 105/146/347 106/162/348 111/144/349 112/175/350
f 106/145/351 105/146/352 108/174/353 107/156/354
f 109/147/355 110/176/356 112/175/357 111/159/358
f 79/148/359 80/149/360 97/137/361 99/150/362
s 10
f 77/151/248 78/152/247 102/141/363 103/153/364
s off
f 73/154/365 74/155/366 106/145/367 107/156/368
s 12
f 75/157/256 76/158/255 109/147/369 111/159/370
s 6
f 74/160/232 75/161/231 111/144/371 106/162/372
s 13
f 76/163/259 77/164/258 103/143/373 109/165/374
s 7
f 78/166/236 79/167/235 99/139/375 102/168/376
s off
f 80/169/377 73/170/378 107/138/379 97/171/380
s 16
f 100/140/381 98/172/382 104/173/383 101/142/384
f 110/176/385 104/173/383 98/172/382 108/174/386
f 108/174/386 105/146/387 112/175/388 110/176/385
